<?xml version="1.0" encoding="UTF-8"?>
<svg xmlns="http://www.w3.org/2000/svg"
     width="32" height="32" viewBox="0 0 32 32"
     role="img" aria-labelledby="title desc">
  <title id="title">Tpipe Tp mark</title>
  <desc id="desc">Fused white T and cyan p monogram on a black background.</desc>

  <!-- Solid favicon background. -->
  <rect width="32" height="32" rx="6" fill="#070A10"/>

  <!-- T: joined to p along the shared vertical edge. -->
  <path fill="#F7F9FC" d="M5 5h13a2 2 0 0 1 2 2v3h-5v17H9V10H5a2 2 0 0 1-2-2V7a2 2 0 0 1 2-2Z"/>

  <!-- p: one large bowl and stem, simplified for 16 px. -->
  <path fill="#19D3D1" fill-rule="evenodd" d="M14 5h6c5.8 0 9 3.4 9 8.5S25.8 22 20 22h-1v5h-5V5Zm5 5v7h1c2.7 0 4-1.1 4-3.5S22.7 10 20 10h-1Z"/>
</svg>
